<svg width="512" height="512" viewBox="0 0 512 512" fill="none" xmlns="http://www.w3.org/2000/svg">
<path d="M222.97 43.0938L205.25 49.0307C223.496 103.393 232.325 161.195 229.656 223.501L228.781 244.001L244.813 231.221C292.026 193.624 326.64 145.005 347.095 85.1257L329.407 79.0628C312.367 128.943 285.327 169.969 248.751 203.283C248.907 146.631 239.836 93.3457 222.971 43.0947L222.97 43.0938ZM53.812 51.2197C51.09 160.79 110.03 244.245 208.75 273C211.323 162.9 153.606 79.3918 53.812 51.2197ZM388.968 201.594C330.532 201.564 273.312 227.537 225.468 277.688C316.243 327.536 417.616 310.095 493.685 230.125C459.513 210.99 424.027 201.612 388.967 201.595L388.968 201.594ZM136.936 277.03C84.486 277.612 42.836 309.39 20.249 368.28C102.585 401.31 171.809 372.54 202.969 290.906C179.636 281.332 157.459 276.804 136.937 277.031L136.936 277.03ZM218.906 296.5C181.146 376.556 210.113 445.53 294.249 479.594C332.035 399.134 304.243 330.278 218.905 296.5H218.906Z" fill="black"/>
</svg>
